<svg width="14" height="14" viewBox="0 0 14 14" fill="none" xmlns="http://www.w3.org/2000/svg">
<path d="M3.65625 9.15625C3.65625 8.72461 4.01172 8.34375 4.46875 8.34375C4.90039 8.34375 5.28125 8.72461 5.28125 9.15625C5.28125 9.61328 4.90039 9.96875 4.46875 9.96875C4.01172 9.96875 3.65625 9.61328 3.65625 9.15625ZM9.34375 9.15625C9.34375 8.72461 9.69922 8.34375 10.1562 8.34375C10.5879 8.34375 10.9688 8.72461 10.9688 9.15625C10.9688 9.61328 10.5879 9.96875 10.1562 9.96875C9.69922 9.96875 9.34375 9.61328 9.34375 9.15625ZM1.87891 2.42773C2.51367 1.61523 4.24023 0.625 7.3125 0.625C10.5625 0.625 12.1367 1.61523 12.7461 2.42773C12.9238 2.68164 13 2.96094 13 3.18945V3.875C13.4316 3.875 13.8125 4.25586 13.8125 4.6875V6.3125C13.8125 6.76953 13.4316 7.125 13 7.125V10.1719C13 10.8066 12.6699 11.3652 12.1875 11.6953V13.0156C12.1875 13.3711 11.9082 13.625 11.5781 13.625C11.2227 13.625 10.9688 13.3711 10.9688 13.0156V12H3.65625V13.0156C3.65625 13.3711 3.37695 13.625 3.04688 13.625C2.69141 13.625 2.4375 13.3711 2.4375 13.0156V11.6953C1.92969 11.3652 1.625 10.8066 1.625 10.1719V7.125C1.16797 7.125 0.8125 6.76953 0.8125 6.3125V4.6875C0.8125 4.25586 1.16797 3.875 1.625 3.875V3.18945C1.625 2.96094 1.67578 2.65625 1.87891 2.42773ZM9.2168 3.0625H11.7051C11.2988 2.63086 10.1309 1.84375 7.3125 1.84375C4.69727 1.84375 3.37695 2.63086 2.91992 3.0625H5.38281C5.50977 2.83398 5.78906 2.65625 6.09375 2.65625H8.53125C8.81055 2.65625 9.08984 2.83398 9.2168 3.0625ZM11.7812 4.28125H7.92188V6.3125H11.7812V4.28125ZM2.84375 6.3125H6.70312V4.28125H2.84375V6.3125ZM2.84375 7.53125V10.1719C2.84375 10.5273 3.09766 10.7812 3.45312 10.7812H11.1719C11.502 10.7812 11.7812 10.5273 11.7812 10.1719V7.53125H2.84375Z" fill="#4B606A"/>
</svg>
