<svg width="16" height="14" viewBox="0 0 16 14" fill="none" xmlns="http://www.w3.org/2000/svg">
<path d="M15.625 7.125C15.625 8.36914 13.7461 9.15625 12.7812 9.15625H10.6992L8.16016 13.2188C8.00781 13.4727 7.75391 13.625 7.44922 13.625H5.79883C5.54492 13.625 5.29102 13.5234 5.13867 13.3203C4.98633 13.1172 4.93555 12.8379 5.01172 12.584L6.10352 9.15625H4.85938L3.86914 10.4766C3.7168 10.6797 3.48828 10.7812 3.23438 10.7812H1.78711C1.55859 10.7812 1.30469 10.6797 1.15234 10.4766C1 10.2734 0.949219 10.0195 1.02539 9.76562L1.78711 7.125L1 4.48438C0.949219 4.25586 1 4.00195 1.15234 3.79883C1.30469 3.5957 1.55859 3.46875 1.78711 3.46875H3.23438C3.48828 3.46875 3.7168 3.5957 3.86914 3.79883L4.85938 5.09375H6.10352L5.01172 1.66602C4.93555 1.4375 4.98633 1.1582 5.13867 0.955078C5.29102 0.751953 5.54492 0.625 5.79883 0.625H7.44922C7.72852 0.625 8.0332 0.802734 8.13477 1.03125L10.6738 5.09375H12.7559C13.7461 5.09375 15.625 5.90625 15.625 7.125ZM14.3809 7.125C14.3301 6.87109 13.416 6.3125 12.7559 6.3125H10.0137L7.2207 1.84375H6.35742L7.75391 6.3125H4.25L3.03125 4.6875H2.3457L3.05664 7.125L2.3457 9.5625H3.03125L4.25 7.9375H7.75391L6.35742 12.4062H7.2207L10.0137 7.9375H12.7559C13.4414 7.9375 14.3555 7.4043 14.3809 7.125Z" fill="#4B606A"/>
</svg>
