<svg width="16" height="14" viewBox="0 0 16 14" fill="none" xmlns="http://www.w3.org/2000/svg">
<path d="M5.84961 1.4375C5.84961 1.00586 6.23047 0.625 6.66211 0.625H9.9375C10.3691 0.625 10.75 1.00586 10.75 1.4375V2.25H11.7656C12.5273 2.25 13.1875 2.91016 13.1875 3.67188V6.69336L13.8223 6.94727C14.8125 7.30273 15.0664 8.54688 14.3301 9.2832L12.5781 11.0098C12.3496 11.2637 11.9688 11.2637 11.7402 11.0098C11.4863 10.7812 11.4863 10.4004 11.7402 10.1465L13.4668 8.41992C13.5938 8.31836 13.543 8.14062 13.416 8.06445L8.36328 6.18555C8.3125 6.16016 8.28711 6.16016 8.23633 6.18555L3.18359 8.06445C3.05664 8.14062 3.00586 8.31836 3.13281 8.41992L4.85938 10.1465C5.11328 10.4004 5.11328 10.7812 4.85938 11.0098C4.63086 11.2637 4.25 11.2637 4.02148 11.0098L2.26953 9.2832C1.5332 8.54688 1.78711 7.30273 2.77734 6.94727L3.41211 6.69336V3.67188C3.41211 2.91016 4.07227 2.25 4.83398 2.25H5.84961V1.4375ZM4.63086 6.23633L7.80469 5.04297C8.13477 4.91602 8.46484 4.91602 8.79492 5.04297L11.9688 6.23633V3.67188C11.9688 3.57031 11.8672 3.46875 11.7656 3.46875H4.83398C4.73242 3.46875 4.63086 3.57031 4.63086 3.67188V6.23633ZM5.84961 12.4062C6.58594 12.4062 7.34766 12.0254 7.90625 11.5684C8.13477 11.3398 8.46484 11.3398 8.69336 11.5684C9.25195 12.0254 10.0137 12.4062 10.7246 12.4062C11.4609 12.4062 12.2227 12.0254 12.7812 11.5684C13.0098 11.3398 13.3398 11.3398 13.5684 11.5684C14 11.9492 14.584 12.2285 15.1426 12.3555C15.4727 12.4316 15.6758 12.7617 15.5996 13.0918C15.5234 13.4219 15.1934 13.625 14.8633 13.5488C14.1523 13.3965 13.543 13.041 13.1621 12.7871C12.4512 13.2695 11.6133 13.625 10.7246 13.625C9.86133 13.625 9.02344 13.2695 8.28711 12.7871C7.57617 13.2695 6.73828 13.625 5.84961 13.625C4.98633 13.625 4.14844 13.2695 3.41211 12.7871C3.05664 13.041 2.44727 13.3965 1.73633 13.5488C1.40625 13.625 1.07617 13.4219 1 13.0918C0.923828 12.7617 1.12695 12.4316 1.45703 12.3555C2.04102 12.2285 2.57422 11.9238 3.00586 11.5684C3.25977 11.3398 3.58984 11.3398 3.81836 11.5684C4.37695 12.0254 5.13867 12.4062 5.84961 12.4062Z" fill="#4B606A"/>
</svg>
