<svg width="22" height="15" viewBox="0 0 22 15" fill="none" xmlns="http://www.w3.org/2000/svg">
<path d="M12.7188 2.25L15 1.0625C15.6875 0.6875 16.4375 0.5 17.2188 0.5H18.8125C20.25 0.5 21.2188 2.03125 20.5938 3.34375C19.9375 4.78125 18.7812 5.96875 17.375 6.71875L9.5625 10.8125C9.3125 10.9375 9.03125 11 8.75 11H4.9375C4.4375 11 3.9375 10.7812 3.625 10.4062L1.34375 7.75C0.8125 7.125 1 6.15625 1.71875 5.8125L2.71875 5.3125C3.1875 5.0625 3.75 5.0625 4.21875 5.28125L5.71875 5.9375L7 5.25L3.65625 3.15625C2.78125 2.625 2.90625 1.34375 3.84375 0.9375L5.21875 0.375C5.875 0.09375 6.5625 0.09375 7.21875 0.3125L12.7188 2.25ZM4.84375 2.15625L10 5.375L5.75 7.59375L3.625 6.65625C3.53125 6.625 3.46875 6.625 3.40625 6.65625L2.6875 7L4.75 9.4375C4.8125 9.46875 4.875 9.5 4.9375 9.5H8.75C8.78125 9.5 8.8125 9.5 8.84375 9.5L16.6875 5.375C17.8125 4.78125 18.6875 3.84375 19.25 2.6875C19.375 2.375 19.1562 2 18.8125 2H17.2188C16.6875 2 16.1875 2.15625 15.7188 2.375L12.8125 3.90625L6.71875 1.71875C6.40625 1.625 6.09375 1.625 5.8125 1.75L4.84375 2.15625ZM20.25 13.5C20.6562 13.5 21 13.8438 21 14.25C21 14.6875 20.6562 15 20.25 15H1.75C1.3125 15 1 14.6875 1 14.25C1 13.8438 1.3125 13.5 1.75 13.5H20.25ZM3.0625 5.96875L2.71875 5.3125L3.0625 5.96875ZM3.625 10.4062L4.15625 9.9375L3.625 10.4062Z" fill="#3B4E56"/>
</svg>
